<?xml version="1.0" standalone="no"?>
<!DOCTYPE svg PUBLIC "-//W3C//DTD SVG 20010904//EN"
 "http://www.w3.org/TR/2001/REC-SVG-20010904/DTD/svg10.dtd">
<svg version="1.0" xmlns="http://www.w3.org/2000/svg"
 width="610.000000pt" height="610.000000pt" viewBox="0 0 610.000000 610.000000"
 preserveAspectRatio="xMidYMid meet">
<metadata>
Created by potrace 1.14, written by Peter Selinger 2001-2017
</metadata>
<g transform="translate(0.000000,610.000000) scale(0.100000,-0.100000)"
fill="#000000" stroke="none">
<path d="M2770 5799 c0 -4 -16 -10 -35 -13 -19 -4 -35 -12 -35 -19 0 -7 -4 -6
-10 3 -7 12 -10 12 -10 1 0 -8 -6 -11 -16 -7 -8 3 -12 2 -9 -4 3 -6 -1 -10 -9
-10 -9 0 -16 -6 -16 -12 0 -10 -2 -10 -9 0 -7 11 -11 11 -24 -2 -8 -9 -19 -16
-23 -16 -9 0 -158 -73 -164 -81 -3 -4 -15 -9 -27 -13 -13 -4 -23 -12 -23 -17
0 -5 -5 -9 -10 -9 -10 0 -19 -6 -59 -40 -10 -8 -24 -16 -32 -18 -8 -2 -19 -10
-25 -18 -6 -7 -16 -14 -22 -14 -5 0 -12 -7 -16 -15 -3 -8 -12 -15 -19 -15 -17
0 -97 -75 -97 -90 0 -5 -5 -10 -11 -10 -16 0 -89 -75 -89 -90 0 -8 -3 -11 -6
-7 -6 6 -22 -10 -79 -78 -16 -20 -38 -44 -47 -53 -10 -9 -18 -22 -18 -29 0 -7
-3 -13 -7 -13 -8 0 -16 -12 -79 -110 -50 -79 -149 -285 -146 -302 1 -5 -3 -8
-8 -8 -6 0 -9 -3 -9 -7 1 -5 0 -11 -1 -15 -1 -5 -3 -11 -4 -15 -1 -5 -7 -18
-14 -29 -6 -12 -9 -24 -5 -27 3 -4 1 -13 -6 -20 -6 -8 -12 -26 -13 -41 -1 -14
-6 -26 -11 -26 -5 0 -7 -7 -3 -15 3 -8 2 -15 -3 -15 -4 0 -7 -10 -6 -22 1 -13
-2 -33 -6 -46 -16 -43 -32 -152 -32 -224 0 -20 -4 -35 -9 -32 -4 3 -4 -6 2
-20 5 -14 6 -26 2 -26 -4 0 -7 -27 -7 -60 0 -33 4 -60 8 -60 4 0 3 -8 -2 -18
-5 -10 -6 -24 -1 -32 5 -8 5 -21 0 -30 -5 -9 -5 -22 0 -30 6 -9 5 -17 -3 -22
-9 -6 -9 -8 1 -8 7 0 12 -15 12 -39 0 -22 4 -42 9 -46 6 -3 8 -14 6 -25 -2
-11 -1 -20 3 -20 4 0 8 -8 8 -17 1 -38 14 -107 21 -112 5 -3 9 -15 11 -26 3
-20 9 -46 13 -55 1 -3 3 -9 4 -15 3 -15 15 -45 37 -97 12 -26 21 -55 21 -63 0
-8 4 -15 7 -15 9 0 36 -61 32 -72 -1 -5 2 -8 8 -8 5 0 10 -6 10 -14 0 -8 7
-17 16 -20 8 -3 13 -10 9 -16 -3 -5 3 -20 14 -32 12 -12 21 -28 21 -35 0 -7 5
-13 10 -13 6 0 10 -6 10 -14 0 -7 11 -24 24 -37 13 -13 27 -34 31 -47 4 -13 9
-21 12 -18 3 3 24 -18 46 -47 53 -68 183 -194 208 -202 11 -4 17 -10 14 -15
-3 -5 4 -11 15 -15 11 -3 20 -11 20 -16 0 -5 5 -9 11 -9 6 0 18 -9 27 -19 10
-11 33 -29 53 -39 63 -35 84 -47 89 -52 3 -3 28 -16 55 -30 28 -14 53 -29 57
-35 4 -5 8 -6 8 -2 0 4 20 -4 43 -18 24 -14 50 -25 57 -25 8 0 33 -9 56 -21
24 -11 52 -21 63 -22 12 -1 21 -6 21 -11 0 -5 3 -7 6 -3 3 3 23 -1 45 -8 22
-8 40 -14 42 -14 7 2 83 -14 92 -19 5 -3 21 -6 35 -7 14 -1 36 -5 49 -9 18 -6
22 -5 15 5 -6 11 -5 12 7 2 9 -7 50 -13 97 -14 53 -1 79 -5 75 -12 -4 -6 -1
-7 8 -1 20 12 38 14 45 3 3 -5 11 -6 17 -2 17 11 77 11 83 1 3 -5 11 -5 18 1
6 5 40 11 74 13 34 2 62 6 62 10 0 5 5 8 11 8 5 0 7 -5 3 -11 -4 -7 1 -7 16 1
12 6 24 9 27 6 4 -3 13 0 21 7 9 6 13 7 9 1 -3 -6 0 -11 8 -11 8 0 12 4 9 9
-3 4 13 8 35 8 26 0 41 5 41 13 0 8 4 7 10 -3 5 -8 10 -10 10 -3 0 6 18 14 40
18 22 4 42 11 45 15 3 5 12 7 20 3 11 -4 15 2 15 21 0 14 -4 26 -10 26 -5 0
-10 8 -10 17 0 9 -3 14 -6 10 -8 -7 -66 21 -76 37 -5 7 -8 6 -8 -4 0 -9 -3
-11 -8 -5 -4 6 -25 19 -47 30 -22 11 -43 25 -47 30 -4 6 -8 6 -8 1 0 -4 -15 3
-34 18 -19 14 -42 26 -50 26 -9 0 -16 4 -16 9 0 5 -13 14 -30 21 -16 7 -30 16
-30 21 0 5 -7 9 -15 9 -8 0 -15 5 -15 10 0 6 -5 10 -11 10 -9 0 -61 38 -105
75 -7 6 -26 21 -44 35 -52 40 -190 179 -190 191 0 5 -4 7 -10 4 -5 -3 -10 -2
-10 4 0 6 -10 21 -22 34 -53 57 -78 88 -78 97 0 6 -4 10 -10 10 -5 0 -10 7
-10 15 0 8 -4 15 -10 15 -5 0 -10 6 -10 13 0 8 -9 22 -20 32 -11 10 -17 22
-14 26 3 5 1 9 -5 9 -6 0 -13 11 -17 25 -3 14 -10 22 -15 19 -5 -3 -9 4 -9 15
0 12 -5 21 -10 21 -6 0 -9 3 -8 8 2 11 -31 80 -42 87 -6 4 -8 11 -5 16 4 5 1
9 -5 9 -7 0 -9 7 -6 16 3 8 2 13 -3 10 -4 -3 -13 13 -20 34 -6 22 -16 40 -21
40 -6 0 -9 3 -8 8 3 13 -14 87 -23 98 -5 6 -10 19 -12 30 -1 10 -6 25 -10 32
-5 6 -5 12 -1 12 3 0 0 8 -7 17 -12 15 -12 16 1 8 13 -8 13 -6 2 8 -8 9 -16
31 -19 49 -3 18 -6 38 -6 43 -1 6 -6 13 -12 17 -6 5 -4 8 5 8 10 0 11 3 4 8
-10 6 -22 76 -28 167 -1 17 -5 36 -9 43 -5 7 -3 12 5 12 9 0 9 3 -2 10 -8 5
-10 10 -4 10 7 0 8 17 4 50 -4 28 -4 50 -1 50 3 0 7 46 8 103 1 56 5 120 8
142 3 22 7 50 8 63 0 12 5 22 9 22 4 0 6 10 4 23 -2 12 3 38 10 59 7 20 10 39
6 43 -4 3 0 10 8 15 13 9 13 10 0 10 -11 0 -12 2 -2 8 7 5 14 17 17 28 13 59
42 133 50 127 4 -5 5 0 2 10 -4 9 2 32 13 51 10 19 16 37 13 40 -4 3 -1 6 5 6
7 0 12 11 12 24 0 13 5 26 10 28 6 2 12 13 13 26 0 12 4 22 8 22 3 0 14 18 25
40 10 22 23 40 27 40 5 0 5 5 2 10 -3 6 -2 10 3 10 5 0 12 8 16 18 7 22 28 55
41 64 7 5 7 8 0 8 -7 0 -7 3 0 8 6 4 23 26 38 50 15 23 32 42 38 42 5 0 7 5 4
10 -3 6 -2 10 3 10 28 0 35 94 9 128 -6 8 -5 12 4 12 9 0 10 3 3 8 -6 4 -14
21 -18 37 -7 31 -17 83 -20 100 -1 6 -5 15 -8 21 -4 6 -9 30 -10 53 l-3 42
-47 -3 c-27 -2 -48 -6 -48 -9z"/>
<path d="M4590 5553 c0 -5 -24 -9 -53 -9 -77 -2 -160 -14 -174 -26 -9 -7 -13
-7 -13 1 0 12 -31 12 -40 0 -4 -6 -72 -19 -107 -22 -7 0 -13 -4 -13 -9 0 -5
-6 -8 -12 -7 -18 3 -70 -12 -85 -24 -7 -5 -13 -6 -13 -1 0 4 -5 3 -12 -4 -7
-7 -22 -12 -35 -12 -13 0 -23 -4 -23 -10 0 -5 -16 -12 -35 -16 -19 -3 -35 -10
-35 -16 0 -5 -4 -6 -10 -3 -5 3 -10 1 -10 -5 0 -6 -4 -9 -9 -5 -5 3 -17 -2
-25 -11 -9 -8 -16 -13 -16 -9 0 3 -19 -6 -42 -20 -24 -14 -51 -28 -60 -31 -10
-4 -18 -10 -18 -15 0 -5 -4 -9 -9 -9 -12 0 -115 -70 -119 -81 -2 -5 -8 -7 -13
-3 -5 3 -9 0 -9 -5 0 -6 -6 -11 -14 -11 -8 0 -18 -9 -21 -21 -4 -11 -9 -18
-12 -15 -3 2 -17 -7 -32 -22 -15 -15 -52 -51 -83 -79 -31 -29 -54 -53 -50 -53
6 0 -40 -50 -85 -93 -13 -11 -23 -24 -23 -29 0 -10 -40 -70 -53 -79 -5 -3 -8
-9 -8 -13 3 -20 0 -26 -10 -20 -7 4 -10 1 -7 -7 2 -7 -4 -22 -13 -33 -10 -10
-16 -23 -13 -28 3 -4 0 -8 -5 -8 -6 0 -11 -7 -11 -15 0 -8 -5 -15 -12 -15 -6
0 -9 -3 -5 -6 3 -4 -4 -27 -17 -53 -13 -25 -33 -77 -45 -115 -12 -38 -27 -76
-34 -85 -10 -12 -9 -13 3 -6 13 8 13 6 2 -8 -8 -9 -11 -21 -8 -26 4 -5 2 -12
-4 -16 -5 -3 -10 -19 -10 -34 0 -15 -3 -31 -7 -35 -11 -11 -13 -41 -18 -235
-3 -127 -1 -188 6 -198 9 -10 8 -13 -2 -13 -9 0 -10 -3 -4 -8 6 -4 10 -20 10
-35 -1 -16 3 -31 7 -33 4 -3 8 -20 8 -39 0 -19 4 -36 9 -39 5 -4 8 -17 7 -31
-2 -13 1 -22 5 -19 5 3 9 -1 10 -8 2 -32 9 -58 35 -128 15 -41 31 -77 36 -78
4 -2 6 -7 3 -12 -3 -5 2 -16 11 -24 8 -9 12 -16 8 -16 -3 0 -1 -7 6 -15 7 -8
9 -15 4 -15 -5 0 -3 -4 5 -9 8 -5 16 -16 17 -24 2 -16 45 -80 57 -85 4 -2 7
-10 7 -18 0 -8 5 -14 10 -14 6 0 10 -6 10 -13 0 -8 11 -24 25 -37 14 -13 25
-28 25 -34 0 -6 11 -22 25 -36 52 -52 94 -100 89 -100 -3 0 9 -12 28 -27 18
-15 40 -36 49 -45 9 -10 22 -18 28 -18 7 0 9 -4 6 -10 -3 -5 -1 -10 4 -10 10
0 36 -19 66 -47 8 -7 18 -13 24 -13 6 0 11 -3 11 -7 0 -8 62 -47 68 -43 2 1
11 -7 20 -18 9 -10 27 -22 40 -26 12 -4 22 -11 22 -16 0 -5 7 -7 15 -4 8 4 15
2 15 -2 0 -5 20 -18 45 -29 25 -11 45 -24 45 -30 0 -5 4 -3 10 5 6 9 5 20 -3
29 -9 12 -9 13 0 7 9 -5 11 -2 7 8 -3 9 -10 16 -15 16 -5 0 -9 9 -9 20 0 11
-4 20 -9 20 -5 0 -12 16 -15 35 -5 22 -11 33 -18 29 -6 -4 -8 -3 -5 3 6 10
-10 63 -31 101 -7 12 -10 22 -7 22 3 0 0 10 -7 23 -7 12 -11 26 -10 31 2 5 0
16 -4 25 -9 19 -13 39 -16 69 -1 12 -5 22 -9 22 -3 0 -6 6 -7 13 0 6 -3 28 -7
47 -3 19 -8 59 -9 88 -2 29 -5 54 -7 56 -2 3 -4 63 -3 135 1 92 -2 129 -10
124 -6 -3 -6 0 1 7 9 9 9 19 2 33 -6 11 -7 17 -2 14 5 -3 9 17 8 46 -1 55 15
142 41 217 9 25 17 50 18 55 5 19 26 70 36 88 6 10 8 22 5 26 -3 5 2 12 11 15
8 3 12 10 9 16 -3 5 -1 10 5 10 7 0 10 7 6 15 -3 8 -1 15 4 15 6 0 10 4 10 9
0 9 59 110 70 121 7 7 40 58 43 67 1 4 11 17 22 28 11 12 27 31 35 44 49 75
241 266 255 253 3 -3 5 -1 5 5 0 5 21 25 48 43 26 19 49 36 52 39 3 4 21 14
40 25 19 10 40 24 45 30 6 6 27 19 48 29 25 11 36 21 31 30 -5 8 -2 7 9 -2 12
-9 17 -10 17 -2 0 7 5 9 10 6 6 -3 10 -1 10 4 0 6 7 11 15 11 8 0 15 5 15 12
0 6 3 8 7 5 3 -4 13 -1 22 7 9 8 21 15 26 16 27 3 55 13 55 19 0 4 6 8 14 8 8
0 29 7 49 16 19 9 45 18 58 19 13 2 27 7 30 11 3 4 18 10 34 13 15 3 35 9 44
13 9 5 24 7 34 6 9 -2 17 0 17 4 0 4 6 8 13 8 43 2 91 14 105 25 13 11 14 11
8 -1 -6 -9 0 -8 17 4 14 9 32 30 39 46 7 16 16 29 20 29 4 0 14 12 22 28 8 15
26 41 40 57 14 17 30 35 36 42 5 7 15 24 22 37 6 14 15 23 19 20 5 -3 9 2 9
10 0 8 12 27 26 43 24 26 24 28 7 41 -10 7 -37 18 -60 25 -23 6 -40 14 -37 19
5 7 -18 12 -38 9 -5 0 -8 3 -8 7 0 4 -12 9 -27 10 -15 1 -32 7 -37 12 -6 6
-18 10 -29 10 -10 0 -25 7 -34 15 -11 12 -19 13 -28 5 -9 -7 -14 -7 -17 -1 -3
11 -36 19 -81 20 -16 1 -26 4 -23 9 2 4 -21 9 -51 10 -31 1 -60 5 -66 9 -6 4
-29 7 -52 8 -22 0 -46 5 -54 9 -10 6 -12 5 -7 -2 9 -15 1 -15 -26 -1 -16 8
-19 8 -13 -1 5 -9 1 -10 -14 -6 -11 3 -31 9 -42 12 -12 4 -19 2 -16 -3 7 -11
-23 -11 -41 1 -6 4 -12 2 -12 -3 0 -6 -5 -11 -11 -11 -5 0 -7 5 -4 10 3 6 1
10 -4 10 -6 0 -11 -3 -11 -7z"/>
<path d="M620 4389 c0 -5 -4 -8 -9 -5 -4 3 -13 -6 -19 -19 -7 -14 -16 -25 -22
-25 -5 0 -9 -3 -8 -7 2 -5 -8 -22 -21 -40 -13 -17 -23 -34 -22 -38 1 -4 -8
-15 -20 -26 -12 -10 -19 -19 -15 -19 4 0 -2 -13 -14 -30 -12 -16 -18 -30 -13
-30 4 0 3 -4 -3 -8 -14 -10 -66 -112 -57 -112 5 0 0 -5 -9 -11 -10 -5 -18 -19
-18 -29 0 -10 -4 -21 -10 -25 -5 -3 -7 -12 -3 -20 3 -8 0 -15 -6 -15 -6 0 -11
-9 -11 -19 0 -11 -5 -23 -10 -26 -6 -4 -8 -10 -5 -15 3 -5 1 -11 -5 -15 -5 -3
-10 -17 -10 -31 0 -13 -4 -24 -10 -24 -5 0 -7 -7 -4 -15 4 -8 2 -21 -4 -28 -8
-10 -17 -41 -38 -136 -3 -14 -8 -29 -11 -35 -4 -6 -7 -22 -8 -36 -1 -14 -4
-41 -8 -60 -11 -61 -16 -113 -17 -178 0 -48 -3 -61 -12 -56 -10 6 -10 5 -1 -7
15 -18 14 -81 -1 -91 -8 -5 -7 -8 2 -8 6 0 12 -5 12 -11 0 -5 -6 -7 -12 -3
-10 6 -10 5 -1 -7 15 -19 15 -91 0 -83 -8 4 -7 2 1 -7 6 -7 12 -30 12 -51 0
-24 5 -38 13 -38 9 0 8 -3 -2 -9 -10 -6 -10 -13 -2 -28 5 -11 8 -23 5 -26 -3
-3 0 -15 6 -27 7 -13 7 -20 2 -16 -8 5 -9 -22 -2 -31 7 -8 25 -106 22 -115 -1
-5 3 -8 8 -8 6 0 10 -6 9 -12 -3 -20 13 -72 25 -80 7 -5 6 -8 -3 -8 -10 0 -11
-3 -2 -14 11 -13 22 -46 23 -73 1 -7 4 -13 8 -13 3 0 13 -23 20 -50 7 -28 17
-50 22 -50 4 0 8 -4 8 -9 0 -5 8 -26 17 -47 9 -22 17 -43 17 -47 1 -4 6 -11
13 -15 6 -4 15 -20 18 -35 4 -15 11 -27 16 -27 5 0 9 -5 9 -12 0 -6 8 -20 18
-31 12 -15 13 -19 2 -13 -9 4 -8 2 3 -7 9 -8 17 -19 17 -26 0 -6 7 -14 15 -17
8 -4 15 -13 15 -22 0 -15 9 -27 63 -83 16 -15 26 -33 23 -38 -4 -5 3 -12 14
-16 11 -3 20 -11 20 -16 0 -14 187 -199 194 -192 3 4 6 0 6 -8 0 -8 12 -22 28
-31 15 -9 39 -29 55 -43 15 -14 27 -23 27 -19 0 4 9 -2 20 -14 12 -12 27 -22
35 -22 8 0 15 -7 15 -15 0 -8 9 -15 20 -15 11 0 20 -3 20 -7 0 -5 10 -13 23
-19 12 -6 48 -25 81 -43 32 -17 64 -31 72 -31 8 0 14 -4 14 -8 0 -8 65 -36 85
-37 6 -1 20 -6 31 -13 12 -6 24 -8 28 -5 3 3 6 2 6 -4 0 -6 10 -13 23 -16 12
-3 64 -17 116 -31 52 -14 98 -23 102 -20 4 2 11 0 14 -6 5 -8 11 -8 20 0 7 6
16 7 19 2 5 -8 71 -15 158 -15 21 0 36 -3 34 -6 -7 -10 79 -6 86 4 5 7 8 7 8
0 0 -8 189 -13 198 -5 1 1 10 3 20 4 9 1 44 6 77 11 33 5 63 8 68 7 4 -1 7 2
7 6 0 4 10 9 23 10 22 2 58 9 67 12 3 1 8 2 13 1 4 0 7 4 7 10 0 8 6 7 17 -2
11 -10 14 -10 9 -1 -6 11 -1 13 29 12 3 0 19 7 35 15 16 8 31 15 32 14 3 -1
41 14 105 42 24 11 47 19 53 19 5 0 10 4 10 9 0 5 7 12 16 15 10 4 13 2 7 -6
-4 -7 6 -3 21 10 16 12 35 22 42 22 8 0 14 4 14 9 0 10 39 27 53 23 5 -1 6 2
2 8 -3 5 -1 10 4 10 22 0 30 5 72 43 10 9 21 16 23 15 2 -2 18 9 36 24 18 15
38 25 43 21 6 -3 7 -1 3 5 -4 7 -3 12 2 12 6 0 27 17 48 38 21 20 34 30 29 22
-4 -8 40 33 99 92 58 59 106 110 106 113 0 9 40 45 50 45 5 0 9 3 9 8 -3 17 1
35 7 29 7 -7 44 41 70 91 9 17 20 32 25 32 5 0 9 7 9 15 0 8 5 15 10 15 6 0
10 7 10 15 0 8 4 15 10 15 5 0 6 7 3 17 -4 10 -2 14 4 10 7 -5 10 6 9 31 -2
42 -15 70 -25 54 -4 -6 -18 -13 -31 -15 -14 -3 -38 -10 -53 -16 -15 -6 -31
-10 -35 -10 -4 1 -9 0 -12 -1 -11 -4 -58 -14 -112 -24 -13 -2 -32 -8 -42 -12
-15 -6 -17 -4 -11 7 6 11 5 12 -6 2 -7 -7 -21 -13 -30 -13 -10 0 -20 -6 -22
-12 -4 -10 -6 -10 -6 0 -1 6 -6 12 -12 12 -5 0 -7 -6 -3 -12 6 -10 4 -10 -8 0
-11 9 -18 9 -23 3 -3 -6 -20 -9 -38 -8 -18 2 -40 0 -49 -5 -10 -5 -18 -5 -18
0 0 4 -27 5 -60 2 -34 -3 -60 -2 -60 3 0 5 -6 4 -13 -2 -8 -6 -16 -8 -20 -5
-3 3 -33 6 -67 6 -33 1 -63 5 -66 10 -3 4 -11 5 -17 1 -17 -11 -67 -12 -67 -2
0 5 -5 9 -11 9 -5 0 -8 -4 -5 -8 3 -5 -1 -9 -9 -9 -8 0 -12 3 -10 7 2 4 -17 8
-43 9 -26 1 -55 4 -64 7 -33 10 -64 16 -90 18 -16 0 -28 4 -28 8 0 5 -13 8
-30 8 -16 0 -30 4 -30 8 0 5 -6 9 -12 10 -45 6 -77 15 -73 23 3 4 -3 6 -15 4
-11 -2 -22 0 -25 6 -4 5 -17 9 -31 9 -13 0 -24 4 -24 9 0 6 -9 8 -20 6 -11 -2
-18 0 -15 4 2 5 -5 12 -18 16 -12 4 -24 9 -27 10 -3 1 -15 6 -27 10 -13 4 -23
12 -23 17 0 5 -4 6 -10 3 -6 -3 -10 -1 -10 6 0 6 -8 9 -20 6 -11 -3 -18 -2
-15 3 3 4 -12 15 -33 24 -36 15 -92 46 -102 56 -3 3 -17 12 -31 20 -34 19 -77
50 -101 73 -10 9 -20 17 -23 17 -3 0 -18 11 -32 24 -15 14 -30 23 -34 20 -4
-2 -10 5 -14 16 -3 11 -10 20 -15 20 -20 0 -245 240 -264 280 -5 11 -15 20
-22 20 -7 0 -14 10 -16 23 -2 12 -9 21 -16 20 -7 -2 -12 8 -12 22 0 14 -5 25
-10 25 -6 0 -17 15 -25 33 -8 17 -14 28 -15 22 0 -5 -13 17 -27 50 -15 33 -30
62 -34 65 -4 3 -11 17 -14 33 -4 15 -11 24 -16 21 -5 -3 -6 2 -3 10 3 9 1 16
-5 16 -6 0 -11 9 -11 20 0 11 -5 20 -11 20 -5 0 -7 5 -4 10 3 6 1 10 -5 10 -6
0 -9 4 -6 9 3 4 -3 24 -13 44 -10 20 -15 35 -11 32 5 -3 2 8 -6 25 -9 16 -16
40 -18 53 -1 12 -6 29 -10 36 -4 7 -10 27 -13 44 -3 18 -9 34 -14 35 -5 2 -9
8 -9 13 0 6 6 7 13 3 9 -6 9 -5 0 7 -6 8 -14 30 -18 49 -3 19 -9 51 -12 70 -4
19 -7 47 -7 63 -1 15 -3 27 -6 27 -5 0 -6 10 -10 123 -2 41 -7 67 -14 67 -8 0
-8 2 0 8 7 4 11 25 11 47 -1 41 -21 68 -58 80 -11 4 -19 11 -19 16 0 6 -4 7
-10 4 -5 -3 -10 -1 -10 4 0 6 -3 11 -7 10 -16 -2 -53 14 -53 22 0 5 -7 9 -16
9 -8 0 -12 4 -9 10 3 5 0 7 -8 4 -8 -3 -20 2 -27 11 -7 8 -21 15 -32 15 -10 0
-16 5 -13 10 3 6 -2 10 -12 10 -11 0 -28 7 -39 15 -23 17 -34 19 -34 4z"/>
<path d="M4575 4032 c-11 -2 -23 -9 -27 -16 -6 -8 -8 -7 -8 2 0 9 -5 10 -19 3
-10 -6 -21 -7 -25 -4 -3 3 -6 1 -6 -5 0 -7 -9 -12 -21 -12 -13 0 -18 -4 -13
-12 5 -8 0 -7 -11 2 -11 9 -16 10 -11 2 5 -8 -1 -15 -16 -21 -42 -16 -146
-130 -198 -215 -13 -23 -32 -50 -42 -60 -9 -10 -15 -23 -12 -28 3 -4 1 -8 -5
-8 -5 0 -15 -16 -22 -35 -7 -19 -17 -35 -21 -35 -4 0 -8 -11 -8 -24 0 -14 -4
-27 -8 -30 -8 -4 -20 -49 -37 -136 -10 -48 -15 -86 -19 -137 -2 -28 -7 -56
-10 -62 -4 -6 -3 -11 2 -11 10 0 7 -54 -3 -71 -4 -5 -3 -9 2 -9 4 0 8 -45 9
-100 0 -68 -3 -97 -10 -93 -6 4 -6 1 1 -8 10 -12 11 -36 3 -59 -1 -3 -2 -31
-2 -62 0 -32 -3 -58 -7 -58 -3 0 -6 -10 -7 -22 0 -13 -4 -41 -8 -63 -5 -22 -8
-48 -8 -57 1 -10 -3 -18 -7 -18 -5 0 -8 -8 -8 -17 1 -22 -9 -60 -35 -138 -11
-33 -20 -68 -21 -77 -1 -10 -4 -18 -8 -18 -6 0 -12 -15 -23 -50 -1 -3 -5 -11
-9 -17 -5 -7 -5 -17 -2 -23 3 -5 2 -10 -4 -10 -5 0 -15 -16 -22 -35 -7 -19
-17 -35 -21 -35 -4 0 -7 -3 -6 -7 3 -10 -31 -73 -48 -91 -8 -7 -14 -18 -14
-23 0 -6 -5 -7 -12 -3 -6 4 -8 3 -4 -4 3 -6 -40 -58 -99 -118 -58 -60 -105
-105 -105 -102 0 4 -20 -13 -44 -38 -25 -24 -52 -44 -61 -44 -9 0 -13 -4 -10
-10 3 -5 2 -10 -3 -10 -5 0 -29 -16 -53 -34 -24 -19 -45 -33 -48 -31 -2 3 -12
-5 -22 -17 -11 -11 -19 -17 -19 -12 0 5 -5 1 -11 -9 -6 -9 -14 -15 -20 -12 -5
4 -9 1 -9 -4 0 -6 -9 -11 -20 -11 -11 0 -20 -7 -20 -15 0 -9 -6 -12 -15 -9 -8
4 -15 1 -15 -6 0 -6 -4 -9 -9 -5 -5 3 -12 1 -16 -4 -6 -11 -109 -61 -124 -61
-6 0 -11 -4 -11 -10 0 -5 -16 -12 -35 -16 -21 -4 -32 -10 -28 -17 4 -6 0 -8
-10 -4 -9 3 -19 2 -22 -3 -4 -6 -16 -10 -29 -10 -12 0 -26 -4 -31 -9 -17 -15
-115 -42 -127 -35 -7 4 -8 3 -4 -4 4 -7 1 -13 -8 -13 -24 -2 -30 -4 -41 -10
-5 -4 -20 -5 -32 -4 -12 1 -20 -2 -17 -7 3 -4 -8 -8 -23 -8 -16 0 -35 -6 -42
-12 -11 -10 -13 -10 -7 0 8 14 -10 17 -18 3 -4 -5 -17 -8 -31 -6 -14 1 -25 -1
-25 -4 0 -4 -8 -7 -17 -8 -87 -5 -105 -7 -109 -15 -3 -4 -13 -4 -23 2 -10 5
-21 7 -24 3 -10 -9 -128 -11 -158 -2 -16 4 -31 3 -38 -4 -8 -8 -11 -7 -11 2 0
10 -3 11 -13 2 -8 -6 -17 -8 -21 -4 -3 4 -46 8 -94 10 -100 3 -75 19 -303
-190 l-31 -28 21 -20 c12 -11 21 -24 21 -29 0 -6 6 -10 13 -11 6 0 28 -20 47
-44 19 -24 43 -47 53 -50 9 -4 17 -12 17 -20 0 -8 9 -17 20 -20 11 -4 18 -11
15 -16 -4 -5 -1 -9 5 -9 6 0 22 -12 35 -26 14 -15 25 -24 25 -20 0 3 8 -2 18
-11 10 -10 35 -31 56 -48 21 -16 44 -35 51 -42 7 -7 15 -9 19 -6 3 3 8 -2 12
-11 3 -9 10 -13 15 -10 5 3 9 1 9 -4 0 -4 16 -16 35 -25 19 -9 35 -21 35 -27
0 -5 3 -9 8 -9 13 3 72 -23 72 -31 0 -4 11 -11 25 -14 14 -4 25 -11 25 -16 0
-6 7 -10 15 -10 8 0 15 -4 15 -9 0 -6 10 -8 21 -6 12 3 19 1 15 -2 -8 -8 96
-53 106 -47 5 3 8 1 8 -5 0 -5 10 -12 23 -16 12 -3 31 -10 42 -15 60 -25 103
-38 109 -33 3 4 6 2 6 -4 0 -5 6 -10 13 -11 21 -2 71 -13 87 -19 23 -9 21 -9
75 -17 28 -4 60 -11 73 -17 17 -7 21 -6 16 2 -5 8 -3 9 7 3 8 -5 32 -10 54
-11 22 -2 67 -5 100 -8 33 -3 81 -7 106 -9 26 -2 52 -7 58 -10 6 -4 11 -1 11
6 0 9 3 9 10 -2 7 -11 10 -11 10 -2 0 8 5 10 12 6 19 -12 48 -12 48 0 0 6 5 4
10 -4 5 -8 10 -10 10 -5 0 6 26 10 58 11 31 1 86 5 122 9 36 4 75 8 88 8 12 1
22 3 22 6 0 4 14 7 31 8 17 1 38 8 47 15 13 11 14 11 8 -1 -7 -10 -3 -12 15
-6 13 4 29 8 34 9 6 0 12 4 15 8 3 3 20 8 38 11 18 3 39 10 47 17 10 8 14 8
18 -2 4 -10 6 -10 6 0 1 6 7 12 14 12 6 0 25 7 40 15 15 8 25 10 22 5 -3 -5 7
-3 22 5 35 18 66 29 76 27 4 -1 7 3 7 8 0 6 12 10 26 10 14 0 23 4 19 10 -3 6
2 10 12 10 10 0 28 7 39 15 12 8 24 11 28 8 3 -3 6 -1 6 5 0 7 9 12 20 12 11
0 20 5 20 10 0 6 6 10 13 10 7 0 22 8 33 18 11 9 26 18 34 20 7 2 19 11 27 20
7 9 13 13 13 8 0 -5 9 -1 20 9 11 10 20 14 20 9 0 -5 7 2 16 14 8 12 19 20 24
17 5 -3 14 4 20 15 6 11 15 18 21 15 5 -4 9 -2 9 4 0 5 9 13 20 16 11 4 18 11
15 16 -4 5 -2 9 2 9 14 0 52 31 112 90 31 30 59 53 64 52 4 -1 7 2 7 6 0 13
108 121 114 114 3 -3 6 1 6 9 0 8 12 25 25 38 14 12 22 27 19 32 -3 5 -1 9 4
9 12 0 87 102 84 113 -1 4 3 7 9 7 5 0 7 5 4 10 -3 6 -1 10 5 10 5 0 20 20 32
45 12 24 26 41 31 38 6 -4 8 1 4 10 -3 10 -2 17 3 17 6 0 10 7 10 15 0 8 5 15
11 15 5 0 7 5 4 10 -3 6 -3 10 2 10 8 0 45 75 58 118 3 12 11 22 16 22 6 0 8
4 4 9 -3 5 -1 12 5 16 6 4 8 11 5 16 -4 5 -2 9 4 9 6 0 13 16 17 35 3 19 10
35 15 35 5 0 8 3 8 8 -4 21 3 42 16 56 9 8 15 17 14 18 -4 9 15 78 21 78 5 0
11 19 15 43 4 23 13 54 20 70 8 15 10 25 5 22 -5 -3 -8 4 -7 15 1 11 4 20 7
20 3 0 7 19 9 42 1 23 7 49 14 57 9 12 9 13 0 7 -7 -4 -13 -3 -13 3 0 5 5 13
11 17 8 4 7 9 -2 15 -12 7 -12 9 0 9 11 0 11 3 1 15 -7 8 -9 15 -4 15 5 0 9
36 9 79 0 44 -3 77 -6 75 -3 -1 -6 20 -7 47 0 28 -6 56 -11 63 -7 9 -7 16 1
24 9 9 9 12 1 12 -7 0 -10 9 -8 20 2 11 1 20 -3 20 -7 0 -12 30 -15 78 0 6 -5
12 -10 12 -6 0 -7 3 -4 7 4 3 1 13 -6 21 -9 12 -9 14 0 9 8 -5 7 2 -2 20 -8
15 -15 36 -15 46 0 9 -5 17 -11 17 -5 0 -7 4 -4 10 6 9 -56 137 -94 194 -11
17 -17 34 -14 39 3 6 1 7 -5 3 -11 -6 -74 89 -87 132 -3 12 -10 22 -15 22 -12
0 -11 68 2 103 6 15 15 27 21 27 6 0 7 3 4 7 -7 6 19 29 36 32 4 0 16 9 26 19
37 32 50 42 61 42 5 0 10 5 10 11 0 5 5 7 10 4 6 -3 10 -1 10 6 0 7 3 9 7 6 3
-4 15 1 26 10 11 10 17 12 13 6 -4 -7 -3 -13 2 -13 6 0 12 7 16 15 3 8 9 14
13 13 4 -1 17 3 28 9 11 6 23 10 27 10 4 -1 16 6 28 15 11 10 20 16 20 14 0
-6 92 24 105 34 6 4 25 11 43 15 18 4 45 13 59 20 15 8 30 12 34 10 4 -3 9 2
13 10 3 8 1 15 -4 15 -6 0 -20 11 -32 25 -12 14 -27 25 -34 25 -6 0 -15 7 -18
16 -4 9 -9 14 -12 11 -3 -3 -14 2 -24 11 -32 29 -49 42 -55 42 -6 0 -24 13
-57 43 -11 10 -33 23 -49 29 -16 5 -29 14 -29 19 0 5 -7 9 -15 9 -8 0 -15 3
-15 8 0 4 -10 12 -23 18 -12 6 -52 27 -89 47 -36 19 -69 33 -72 30 -3 -4 -6
-1 -6 5 0 7 -7 12 -15 12 -8 0 -15 5 -15 11 0 5 -4 8 -9 4 -5 -3 -12 -1 -15 4
-4 5 -35 19 -71 31 -36 12 -65 26 -65 31 0 5 -5 9 -11 9 -5 0 -7 -6 -3 -12 6
-10 5 -10 -7 -1 -12 10 -44 18 -99 26 -8 2 -20 6 -26 10 -7 4 -23 7 -35 6 -13
0 -53 1 -89 4 -36 2 -74 2 -85 -1z"/>
</g>
</svg>
